<?xml version="1.0" encoding="utf-8"?>
<svg version="1.1" id="Layer_1" xmlns="http://www.w3.org/2000/svg" xmlns:xlink="http://www.w3.org/1999/xlink" x="0px" y="0px"
	 viewBox="0 200 600 200" enable-background="new 0 200 600 200" xml:space="preserve">
<g id="Logo_White">
	<g id="Logotype">
		<path id="ft" fill="#2A3E51" d="M587.3,298.7v31.2c0,3,0.5,4.9,1.4,5.8s3,1.4,5.8,1.4c1,0,1.9,0,2.8-0.1s1.7-0.2,2.6-0.4V350
			c-1.4,0.3-3.1,0.4-4.9,0.5s-3.5,0.1-5.3,0.1c-2.7,0-5.3-0.2-7.6-0.6s-4.5-1.1-6.3-2.1c-1.8-1.1-3.2-2.6-4.3-4.5
			c-1.1-1.9-1.6-4.5-1.6-7.6v-37.1h-21.1v51.4h-17.3v-51.4h-10.3v-11.6h10.3v-4.9c0-5.6,1.7-10.2,5.3-13.8c3.5-3.5,8.8-5.4,15.9-5.4
			c1.5,0,3.1,0.1,4.6,0.2c1.5,0.1,3.1,0.2,4.5,0.3v12.9c-2-0.3-4.1-0.4-6.3-0.4c-2.4,0-4,0.6-5.1,1.6c-1.1,1.1-1.5,3-1.5,5.5v3.7
			h21.1v-18.8h17.3v18.9h12.7v11.6H587.3z"/>
		<path id="o2" fill="#2A3E51" d="M456.9,305c1.5-4.1,3.7-7.5,6.6-10.5c2.9-2.9,6.2-5.2,10.2-6.7c4-1.6,8.4-2.4,13.4-2.4
			s9.5,0.8,13.5,2.4c4,1.6,7.5,3.8,10.3,6.7c2.9,2.9,5.1,6.4,6.6,10.5c1.5,4.1,2.3,8.7,2.3,13.7c0,5.1-0.8,9.6-2.3,13.7
			c-1.5,4.1-3.7,7.5-6.6,10.4c-2.9,2.9-6.3,5.1-10.3,6.6s-8.5,2.3-13.5,2.3c-5,0-9.5-0.8-13.4-2.3c-4-1.5-7.4-3.7-10.2-6.6
			s-5.1-6.3-6.6-10.4c-1.5-4-2.3-8.6-2.3-13.7C454.6,313.7,455.3,309.1,456.9,305z M472.5,326c0.5,2.4,1.3,4.6,2.5,6.5
			c1.1,1.9,2.8,3.4,4.7,4.6c1.9,1.1,4.4,1.7,7.3,1.7c3,0,5.4-0.6,7.4-1.7c2-1.1,3.5-2.7,4.8-4.6c1.1-1.9,2-4,2.5-6.5
			c0.5-2.4,0.8-4.9,0.8-7.4s-0.3-5-0.8-7.5c-0.5-2.4-1.3-4.6-2.5-6.5c-1.1-1.9-2.8-3.3-4.8-4.6c-2-1.1-4.5-1.7-7.4-1.7
			c-3,0-5.4,0.6-7.3,1.7c-1.9,1.1-3.5,2.7-4.7,4.6c-1.1,1.9-2,4-2.5,6.5c-0.5,2.4-0.8,4.9-0.8,7.5C471.9,321.2,472,323.6,472.5,326z
			"/>
		<path id="s" fill="#2A3E51" d="M408.7,334.4c0.8,1.3,1.7,2.4,3,3.2c1.2,0.9,2.6,1.5,4.2,1.9c1.6,0.4,3.2,0.6,5,0.6
			c1.2,0,2.5-0.1,3.8-0.4c1.3-0.3,2.6-0.8,3.6-1.3c1.1-0.6,2-1.4,2.8-2.4c0.8-1.1,1.1-2.3,1.1-3.8c0-2.6-1.7-4.6-5.2-5.8
			c-3.4-1.3-8.2-2.6-14.4-3.9c-2.5-0.6-5-1.2-7.4-2c-2.4-0.8-4.5-1.8-6.4-3.1c-1.9-1.2-3.3-2.9-4.5-4.8c-1.1-1.9-1.7-4.2-1.7-7
			c0-4,0.8-7.4,2.4-10c1.6-2.6,3.6-4.7,6.3-6.1c2.6-1.5,5.5-2.6,8.8-3.2s6.6-1,10-1s6.7,0.3,9.9,1c3.2,0.7,6.1,1.7,8.6,3.2
			c2.5,1.5,4.6,3.6,6.3,6.1c1.6,2.6,2.7,5.8,3,9.7h-16.4c-0.3-3.3-1.5-5.5-3.8-6.8c-2.3-1.1-5-1.7-8-1.7c-1,0-2,0.1-3.2,0.2
			c-1.1,0.1-2.2,0.4-3.2,0.8c-1,0.4-1.7,1-2.4,1.7s-1,1.8-1,3.2c0,1.5,0.6,2.8,1.7,3.8c1.1,1,2.6,1.7,4.5,2.4
			c1.8,0.6,3.9,1.1,6.3,1.6s4.8,1.1,7.2,1.6c2.5,0.6,5,1.2,7.4,2.1c2.4,0.9,4.5,1.9,6.4,3.2c1.9,1.3,3.3,3,4.5,5s1.7,4.5,1.7,7.4
			c0,4.1-0.9,7.6-2.5,10.4c-1.6,2.8-3.8,5.1-6.5,6.8c-2.7,1.7-5.7,2.9-9.2,3.6c-3.4,0.7-7,1.1-10.5,1.1c-3.6,0-7.3-0.4-10.7-1.1
			c-3.5-0.8-6.6-1.9-9.4-3.6c-2.7-1.7-5-3.9-6.7-6.8c-1.7-2.8-2.7-6.3-2.9-10.5h16.4C407.5,331.5,407.9,333.1,408.7,334.4z"/>
		<path id="o1" fill="#2A3E51" d="M322.5,306.2c1.5-4,3.7-7.5,6.5-10.3c2.8-2.9,6.2-5.1,10.1-6.6s8.3-2.4,13.2-2.4
			c4.9,0,9.3,0.8,13.3,2.4c3.9,1.5,7.4,3.7,10.1,6.6s5,6.3,6.5,10.3c1.5,4,2.3,8.5,2.3,13.5s-0.8,9.5-2.3,13.5
			c-1.5,4-3.7,7.5-6.5,10.2c-2.8,2.9-6.2,5.1-10.1,6.5c-3.9,1.5-8.4,2.3-13.3,2.3c-4.9,0-9.3-0.8-13.2-2.3s-7.3-3.7-10.1-6.5
			c-2.8-2.9-5-6.3-6.5-10.2c-1.5-4-2.3-8.5-2.3-13.5S321,310.2,322.5,306.2z M338,326.9c0.5,2.4,1.3,4.5,2.5,6.4
			c1.1,1.9,2.7,3.3,4.6,4.5c1.9,1.1,4.3,1.7,7.2,1.7s5.3-0.6,7.3-1.7c2-1.1,3.5-2.6,4.7-4.5s2-4,2.5-6.4s0.8-4.8,0.8-7.3
			s-0.3-5-0.8-7.4s-1.3-4.5-2.5-6.4c-1.1-1.8-2.7-3.3-4.7-4.5c-2-1.1-4.4-1.7-7.3-1.7s-5.3,0.6-7.2,1.7c-1.9,1.1-3.4,2.7-4.6,4.5
			c-1.1,1.8-2,3.9-2.5,6.4s-0.8,4.9-0.8,7.4C337.2,322.2,337.5,324.7,338,326.9z"/>
		<path id="x" fill="#2A3E51" d="M299.1,316.1l23.6,34H303l-13.4-20.4c-4.4,6.6-8.7,13.4-12.8,20.2l-0.2,0.3h-19.4
			c6.3-12,13.9-23.2,22.6-33.5l-20.5-29.4H279l11.8,17.5c12.9-12.9,27.7-23.9,43.9-32.6C322,286,310.1,300.8,299.1,316.1z"/>
		<path id="a" fill="#2A3E51" d="M195.8,296.4c1.8-2.7,4-4.9,6.8-6.5c2.8-1.6,5.8-2.8,9.4-3.4c3.4-0.7,6.9-1.1,10.4-1.1
			c3.2,0,6.4,0.2,9.7,0.7c3.2,0.5,6.2,1.3,8.9,2.6c2.7,1.3,4.9,3.2,6.6,5.4c1.7,2.3,2.6,5.4,2.6,9.2V336c0,2.9,0.2,5.5,0.5,8.1
			c0.3,2.6,0.9,4.6,1.7,5.8h-17.6c-0.3-1-0.6-2-0.8-3c-0.2-1.1-0.4-2-0.4-3.2c-2.8,2.9-6,4.9-9.7,5.9c-3.7,1.1-7.5,1.7-11.5,1.7
			c-3,0-5.8-0.4-8.4-1.1c-2.6-0.8-4.9-1.9-6.8-3.4c-1.9-1.5-3.4-3.5-4.6-5.8c-1.1-2.4-1.6-5.2-1.6-8.4c0-3.5,0.7-6.5,1.9-8.8
			c1.2-2.3,2.9-4.2,4.9-5.5s4.3-2.4,6.8-3.2c2.6-0.7,5.2-1.2,7.7-1.6s5.2-0.8,7.6-1c2.5-0.3,4.8-0.6,6.7-1.1s3.5-1.2,4.6-2.1
			c1.1-1,1.6-2.3,1.6-4.1c0-1.9-0.3-3.3-1-4.5c-0.6-1.1-1.4-1.9-2.4-2.6c-1.1-0.6-2.2-1.1-3.5-1.2c-1.3-0.2-2.8-0.3-4.3-0.3
			c-3.4,0-6.1,0.8-8,2.2s-3.1,3.9-3.4,7.3h-17.3C193,302.4,194.1,299,195.8,296.4z M230,320.8c-1.1,0.4-2.3,0.7-3.5,1
			c-1.2,0.3-2.6,0.5-3.9,0.6c-1.3,0.2-2.8,0.4-4.1,0.6c-1.3,0.3-2.6,0.6-3.8,1c-1.2,0.4-2.4,1-3.2,1.6c-1,0.7-1.7,1.5-2.3,2.6
			c-0.6,1.1-0.9,2.4-0.9,4c0,1.5,0.3,2.9,0.9,3.9c0.6,1.1,1.3,1.9,2.3,2.5s2.1,1.1,3.4,1.2c1.3,0.3,2.7,0.4,4,0.4
			c3.4,0,6-0.6,7.9-1.7c1.9-1.1,3.2-2.5,4.1-4.1c0.9-1.6,1.4-3.2,1.6-4.8c0.2-1.6,0.3-3,0.3-3.9v-6.5
			C232,319.9,231.1,320.4,230,320.8z"/>
	</g>
	<path id="Leaf_Glyph" fill="#8AC732" d="M193.9,227.5c0,0-42,3.8-70.4,24.5c-32,23.2-33.1,54-29.1,75.3
		c10.8-22,26.9-41.7,46.5-54.9c0.9-0.6,1.7,0.6,1,1.2c-21.1,18.4-37.7,44.2-44.8,72.6c-0.4,1.4-2.2,1.8-3.2,0.8
		c-8.9-10.2-24.7-19.4-38.4-21.5c-0.9-0.1-0.9-1.4,0-1.5c8.6-0.9,22.3,2.3,30.7,5.7c-3-10.6-13.6-23.9-39.3-23.3
		c-26,0.5-46.8,14-46.8,14s16.4,34.7,50.5,36.8c23.5,1.4,33.5-11.8,35-11.4c1.3,0.4,11.8,12.8,13.7,26.1c0.1,0.6,0.9,0.9,1.2,0.5
		l8.1-7.2c1.1-1,0.6-1,0.4-1.5c-3.6-9.7-0.7-19.6-0.7-19.6s30.3,9.5,59.1-17.9C203.9,291.5,193.9,227.5,193.9,227.5z"/>
</g>
</svg>
