<?xml version="1.0" encoding="utf-8"?>
<svg version="1.1" xmlns="http://www.w3.org/2000/svg" xmlns:xlink="http://www.w3.org/1999/xlink" x="0px" y="0px"
	 viewBox="0 0 627.9 151.8" style="enable-background:new 0 0 627.9 151.8;" xml:space="preserve">
<style type="text/css">
	.st0{fill:#2a3e51;}
	.st1{fill-rule:evenodd;clip-rule:evenodd;fill:#8ac732;}
</style>
<g id="Logo_White">
	<g id="Logotype">
		<path id="ft" class="st0" d="M614.6,74.5v32.6c0,3.1,0.5,5.1,1.5,6.1c1,1,3.1,1.5,6.1,1.5c1,0,2,0,2.9-0.1
			c0.9-0.1,1.8-0.2,2.7-0.4v14c-1.5,0.3-3.2,0.4-5.1,0.5c-1.9,0.1-3.7,0.1-5.5,0.1c-2.8,0-5.5-0.2-8-0.6c-2.5-0.4-4.7-1.1-6.6-2.2
			c-1.9-1.1-3.4-2.7-4.5-4.7c-1.1-2-1.7-4.7-1.7-8V74.5h-22.1v53.8h-18.1V74.5h-10.8V62.4h10.8v-5.1c0-5.9,1.8-10.7,5.5-14.4
			c3.7-3.7,9.2-5.6,16.6-5.6c1.6,0,3.2,0.1,4.8,0.2c1.6,0.1,3.2,0.2,4.7,0.3v13.5c-2.1-0.3-4.3-0.4-6.6-0.4c-2.5,0-4.2,0.6-5.3,1.7
			c-1.1,1.1-1.6,3.1-1.6,5.8v3.9h22.1V42.6h18.1v19.8h13.3v12.1H614.6z"/>
		<path id="o2" class="st0" d="M478.1,81.1c1.6-4.3,3.9-7.9,6.9-11c3-3,6.5-5.4,10.7-7c4.2-1.7,8.8-2.5,14-2.5
			c5.2,0,9.9,0.8,14.1,2.5c4.2,1.7,7.8,4,10.8,7c3,3,5.3,6.7,6.9,11c1.6,4.3,2.4,9.1,2.4,14.3c0,5.3-0.8,10-2.4,14.3
			c-1.6,4.3-3.9,7.9-6.9,10.9c-3,3-6.6,5.3-10.8,6.9c-4.2,1.6-8.9,2.4-14.1,2.4c-5.2,0-9.9-0.8-14-2.4c-4.2-1.6-7.7-3.9-10.7-6.9
			c-3-3-5.3-6.6-6.9-10.9c-1.6-4.2-2.4-9-2.4-14.3C475.7,90.2,476.5,85.4,478.1,81.1z M494.5,103.1c0.5,2.5,1.4,4.8,2.6,6.8
			c1.2,2,2.9,3.6,4.9,4.8c2,1.2,4.6,1.8,7.6,1.8c3.1,0,5.6-0.6,7.7-1.8c2.1-1.2,3.7-2.8,5-4.8c1.2-2,2.1-4.2,2.6-6.8
			c0.5-2.5,0.8-5.1,0.8-7.7c0-2.6-0.3-5.2-0.8-7.8c-0.5-2.5-1.4-4.8-2.6-6.8c-1.2-2-2.9-3.5-5-4.8c-2.1-1.2-4.7-1.8-7.7-1.8
			c-3.1,0-5.6,0.6-7.6,1.8c-2,1.2-3.7,2.8-4.9,4.8c-1.2,2-2.1,4.2-2.6,6.8c-0.5,2.5-0.8,5.1-0.8,7.8
			C493.8,98.1,494,100.6,494.5,103.1z"/>
		<path id="s" class="st0" d="M427.7,111.9c0.8,1.4,1.8,2.5,3.1,3.4s2.7,1.6,4.4,2c1.7,0.4,3.4,0.6,5.2,0.6c1.3,0,2.6-0.1,4-0.4
			c1.4-0.3,2.7-0.8,3.8-1.4c1.1-0.6,2.1-1.5,2.9-2.5c0.8-1.1,1.1-2.4,1.1-4c0-2.7-1.8-4.8-5.4-6.1c-3.6-1.4-8.6-2.7-15.1-4.1
			c-2.6-0.6-5.2-1.3-7.7-2.1c-2.5-0.8-4.7-1.9-6.7-3.2c-2-1.3-3.5-3-4.7-5c-1.2-2-1.8-4.4-1.8-7.3c0-4.2,0.8-7.7,2.5-10.5
			c1.7-2.7,3.8-4.9,6.6-6.4c2.7-1.6,5.8-2.7,9.2-3.3c3.4-0.6,6.9-1,10.5-1s7,0.3,10.4,1c3.4,0.7,6.4,1.8,9,3.4
			c2.6,1.6,4.8,3.8,6.6,6.4c1.7,2.7,2.8,6.1,3.1,10.1h-17.2c-0.3-3.5-1.6-5.8-4-7.1c-2.4-1.2-5.2-1.8-8.4-1.8c-1,0-2.1,0.1-3.3,0.2
			c-1.2,0.1-2.3,0.4-3.3,0.8c-1,0.4-1.8,1-2.5,1.8c-0.7,0.8-1,1.9-1,3.3c0,1.6,0.6,2.9,1.8,4c1.2,1,2.7,1.8,4.7,2.5
			c1.9,0.6,4.1,1.2,6.6,1.7c2.5,0.5,5,1.1,7.5,1.7c2.6,0.6,5.2,1.3,7.7,2.2c2.5,0.9,4.7,2,6.7,3.4c2,1.4,3.5,3.1,4.7,5.2
			c1.2,2.1,1.8,4.7,1.8,7.7c0,4.3-0.9,8-2.6,10.9c-1.7,2.9-4,5.3-6.8,7.1c-2.8,1.8-6,3-9.6,3.8c-3.6,0.7-7.3,1.1-11,1.1
			c-3.8,0-7.6-0.4-11.2-1.1c-3.7-0.8-6.9-2-9.8-3.8c-2.8-1.8-5.2-4.1-7-7.1c-1.8-2.9-2.8-6.6-3-11h17.2
			C426.5,108.9,426.9,110.5,427.7,111.9z"/>
		<path id="o1" class="st0" d="M337.5,82.4c1.6-4.2,3.9-7.8,6.8-10.8c2.9-3,6.5-5.3,10.6-6.9c4.1-1.6,8.7-2.5,13.8-2.5
			c5.1,0,9.7,0.8,13.9,2.5c4.1,1.6,7.7,3.9,10.6,6.9c2.9,3,5.2,6.6,6.8,10.8c1.6,4.2,2.4,8.9,2.4,14.1c0,5.2-0.8,9.9-2.4,14.1
			c-1.6,4.2-3.9,7.8-6.8,10.7c-2.9,3-6.5,5.3-10.6,6.8c-4.1,1.6-8.8,2.4-13.9,2.4c-5.1,0-9.7-0.8-13.8-2.4
			c-4.1-1.6-7.6-3.9-10.6-6.8c-2.9-3-5.2-6.6-6.8-10.7c-1.6-4.2-2.4-8.9-2.4-14.1C335.1,91.3,335.9,86.6,337.5,82.4z M353.7,104.1
			c0.5,2.5,1.4,4.7,2.6,6.7c1.2,2,2.8,3.5,4.8,4.7c2,1.2,4.5,1.8,7.5,1.8c3,0,5.5-0.6,7.6-1.8c2.1-1.2,3.7-2.7,4.9-4.7
			c1.2-2,2.1-4.2,2.6-6.7c0.5-2.5,0.8-5,0.8-7.6c0-2.6-0.3-5.2-0.8-7.7s-1.4-4.7-2.6-6.7c-1.2-1.9-2.8-3.5-4.9-4.7
			c-2.1-1.2-4.6-1.8-7.6-1.8c-3,0-5.5,0.6-7.5,1.8c-2,1.2-3.6,2.8-4.8,4.7c-1.2,1.9-2.1,4.1-2.6,6.7s-0.8,5.1-0.8,7.7
			C352.9,99.1,353.2,101.7,353.7,104.1z"/>
		<path id="x" class="st0" d="M313,92.7l24.7,35.6h-20.6l-14-21.4c-4.6,6.9-9.1,14-13.4,21.1l-0.2,0.3h-20.3
			c6.6-12.6,14.5-24.3,23.6-35.1l-21.5-30.8H292l12.4,18.3c13.5-13.5,29-25,45.9-34.1C337,61.3,324.5,76.7,313,92.7z"/>
		<path id="a" class="st0" d="M204.9,72.1c1.9-2.8,4.2-5.1,7.1-6.8c2.9-1.7,6.1-2.9,9.8-3.6c3.6-0.7,7.2-1.1,10.9-1.1
			c3.3,0,6.7,0.2,10.1,0.7c3.4,0.5,6.5,1.4,9.3,2.7c2.8,1.4,5.1,3.3,6.9,5.7c1.8,2.4,2.7,5.6,2.7,9.6v34.3c0,3,0.2,5.8,0.5,8.5
			c0.3,2.7,0.9,4.8,1.8,6.1h-18.4c-0.3-1-0.6-2.1-0.8-3.1c-0.2-1.1-0.4-2.1-0.4-3.3c-2.9,3-6.3,5.1-10.2,6.2
			c-3.9,1.2-7.9,1.8-12,1.8c-3.1,0-6.1-0.4-8.8-1.1c-2.7-0.8-5.1-2-7.1-3.6c-2-1.6-3.6-3.7-4.8-6.1c-1.1-2.5-1.7-5.4-1.7-8.8
			c0-3.7,0.7-6.8,2-9.2c1.3-2.4,3-4.4,5.1-5.8c2.1-1.4,4.5-2.5,7.1-3.3c2.7-0.7,5.4-1.3,8.1-1.7c2.7-0.4,5.4-0.8,8-1
			c2.6-0.3,5-0.6,7-1.1c2-0.5,3.7-1.3,4.8-2.2c1.2-1,1.7-2.4,1.7-4.3c0-2-0.3-3.5-1-4.7c-0.6-1.1-1.5-2-2.5-2.7
			c-1.1-0.6-2.3-1.1-3.7-1.3c-1.4-0.2-2.9-0.3-4.5-0.3c-3.6,0-6.4,0.8-8.4,2.3c-2,1.5-3.2,4.1-3.6,7.6h-18.1
			C202,78.4,203.1,74.9,204.9,72.1z M240.7,97.7c-1.1,0.4-2.4,0.7-3.7,1c-1.3,0.3-2.7,0.5-4.1,0.6c-1.4,0.2-2.9,0.4-4.3,0.6
			c-1.4,0.3-2.7,0.6-4,1c-1.3,0.4-2.5,1-3.4,1.7c-1,0.7-1.8,1.6-2.4,2.7c-0.6,1.1-0.9,2.5-0.9,4.2c0,1.6,0.3,3,0.9,4.1
			c0.6,1.1,1.4,2,2.4,2.6c1,0.6,2.2,1.1,3.6,1.3c1.4,0.3,2.8,0.4,4.2,0.4c3.6,0,6.3-0.6,8.3-1.8c2-1.2,3.4-2.6,4.3-4.3
			c0.9-1.7,1.5-3.3,1.7-5c0.2-1.7,0.3-3.1,0.3-4.1v-6.8C242.8,96.7,241.8,97.3,240.7,97.7z"/>
	</g>
	<path id="Leaf_Glyph" class="st1" d="M202.9,0c0,0-44,4-73.7,25.6c-33.5,24.3-34.6,56.5-30.5,78.8c11.3-23,28.1-43.6,48.7-57.5
		c0.9-0.6,1.8,0.6,1,1.3c-22.1,19.3-39.5,46.3-46.9,76c-0.4,1.5-2.3,1.9-3.3,0.8c-9.3-10.7-25.8-20.3-40.2-22.5
		c-0.9-0.1-0.9-1.5,0-1.6c9-0.9,23.3,2.4,32.1,6c-3.1-11.1-14.2-25-41.1-24.4C21.8,83,0,97.2,0,97.2s17.2,36.3,52.9,38.5
		c24.6,1.5,35.1-12.3,36.6-11.9c1.4,0.4,12.3,13.4,14.3,27.3c0.1,0.6,0.9,0.9,1.3,0.5l8.5-7.5c1.1-1,0.6-1,0.4-1.6
		c-3.8-10.2-0.7-20.5-0.7-20.5s31.7,9.9,61.8-18.7C213.4,67,202.9,0,202.9,0z"/>
</g>
</svg>
