<?xml version="1.0" encoding="UTF-8" standalone="no"?>
<svg width="105px" height="24px" viewBox="0 0 105 24" version="1.1" xmlns="http://www.w3.org/2000/svg" xmlns:xlink="http://www.w3.org/1999/xlink" xmlns:sketch="http://www.bohemiancoding.com/sketch/ns">
    <!-- Generator: Sketch 3.2.2 (9983) - http://www.bohemiancoding.com/sketch -->
    <title>nodegit</title>
    <desc>Created with Sketch.</desc>
    <defs></defs>
    <g id="Page-1" stroke="none" stroke-width="1" fill="none" fill-rule="evenodd" sketch:type="MSPage">
        <g id="Desktop" sketch:type="MSArtboardGroup" transform="translate(-24.000000, -14.000000)">
            <g id="nodegit" sketch:type="MSLayerGroup" transform="translate(24.000000, 14.000000)">
                <g id="Group" sketch:type="MSShapeGroup">
                    <path d="M20.7388938,23.7567692 L6.93139381,23.772 L0.0148672566,11.9012308 L6.9044469,0.0152307692 L20.7114823,0 L27.6280088,11.8707692 L20.7388938,23.7567692 Z" id="Shape" fill="#F1595F"></path>
                    <path d="M17.4332522,15.2916923 C16.9942035,15.2916923 16.5802434,15.3950769 16.2099558,15.5736923 L10.7257965,10.1261538 C10.8084956,9.98169231 10.8735398,9.82661538 10.9297566,9.66784615 L14.7799115,9.66784615 C15.1627434,10.7589231 16.2057743,11.5449231 17.4327876,11.5449231 C18.9826991,11.5449231 20.2445575,10.2923077 20.2445575,8.75215385 C20.2445575,7.212 18.9826991,5.95892308 17.4327876,5.95892308 C16.2057743,5.95892308 15.1622788,6.74538462 14.7799115,7.83646154 L10.9339381,7.83646154 C10.5511062,6.74538462 9.50807522,5.95892308 8.28106195,5.95892308 C6.73068584,5.95892308 5.46929204,7.212 5.46929204,8.75215385 C5.46929204,10.2918462 6.73068584,11.5449231 8.28106195,11.5449231 C8.65553097,11.5449231 9.01188053,11.4706154 9.33896018,11.3381538 L14.9062832,16.8683077 C14.7260177,17.2361538 14.6219469,17.6478462 14.6219469,18.084 C14.6219469,19.6241538 15.8833407,20.8772308 17.4332522,20.8772308 C18.9831637,20.8772308 20.2450221,19.6241538 20.2450221,18.084 C20.2450221,16.5447692 18.9831637,15.2916923 17.4332522,15.2916923 L17.4332522,15.2916923 Z M17.4332522,7.56184615 C18.0943805,7.56184615 18.6319248,8.09584615 18.6319248,8.75261538 C18.6319248,9.40846154 18.0943805,9.94292308 17.4332522,9.94292308 C16.7725885,9.94292308 16.2350442,9.40892308 16.2350442,8.75261538 C16.2350442,8.09584615 16.7725885,7.56184615 17.4332522,7.56184615 L17.4332522,7.56184615 Z M8.28106195,9.94246154 C7.62039823,9.94246154 7.08285398,9.40846154 7.08285398,8.75215385 C7.08285398,8.09538462 7.62039823,7.56138462 8.28106195,7.56138462 C8.94172566,7.56138462 9.47926991,8.09538462 9.47926991,8.75215385 C9.47926991,9.40846154 8.94219027,9.94246154 8.28106195,9.94246154 L8.28106195,9.94246154 Z M17.4332522,19.2752308 C16.7725885,19.2752308 16.2350442,18.7412308 16.2350442,18.0844615 C16.2350442,17.4286154 16.7721239,16.8946154 17.4332522,16.8946154 C18.0943805,16.8946154 18.6319248,17.4286154 18.6319248,18.0844615 C18.6319248,18.7412308 18.0943805,19.2752308 17.4332522,19.2752308 L17.4332522,19.2752308 Z" id="Shape" fill="#BC4E52"></path>
                    <path d="M18.2123894,14.2606154 C17.7738053,14.2606154 17.3598451,14.364 16.9890929,14.5426154 L11.5053982,9.09507692 C11.5885619,8.95015385 11.6577876,8.79692308 11.7135398,8.63723077 L15.5595133,8.63723077 C15.9423451,9.72784615 16.9853761,10.5138462 18.2123894,10.5138462 C19.7627655,10.5138462 21.0241593,9.26123077 21.0241593,7.72107692 C21.0241593,6.18092308 19.7627655,4.92830769 18.2123894,4.92830769 C16.9853761,4.92830769 15.9423451,5.71476923 15.5595133,6.80538462 L11.7140044,6.80538462 C11.3311726,5.71430769 10.287677,4.92830769 9.06066372,4.92830769 C7.51075221,4.92830769 6.24935841,6.18138462 6.24935841,7.72107692 C6.24935841,9.26076923 7.51028761,10.5138462 9.06066372,10.5138462 C9.43513274,10.5138462 9.7914823,10.4395385 10.1185619,10.3070769 L15.685885,15.8372308 C15.5056195,16.2050769 15.4015487,16.6167692 15.4015487,17.0529231 C15.4015487,18.5930769 16.6629425,19.8461538 18.212854,19.8461538 C19.7632301,19.8461538 21.0246239,18.5930769 21.0246239,17.0529231 C21.0241593,15.5132308 19.7632301,14.2606154 18.2123894,14.2606154 L18.2123894,14.2606154 Z M18.2123894,6.53076923 C18.8735177,6.53076923 19.4110619,7.06476923 19.4110619,7.72153846 C19.4110619,8.37784615 18.8735177,8.91184615 18.2123894,8.91184615 C17.5517257,8.91184615 17.0141814,8.37784615 17.0141814,7.72153846 C17.0141814,7.06476923 17.5517257,6.53076923 18.2123894,6.53076923 L18.2123894,6.53076923 Z M7.86199115,7.72107692 C7.86199115,7.06476923 8.3995354,6.53030769 9.06019912,6.53030769 C9.72132743,6.53030769 10.2588717,7.06430769 10.2588717,7.72107692 C10.2588717,8.37738462 9.72132743,8.91138462 9.06019912,8.91138462 C8.4,8.91184615 7.86199115,8.37738462 7.86199115,7.72107692 L7.86199115,7.72107692 Z M18.2123894,18.2441538 C17.5517257,18.2441538 17.0141814,17.7096923 17.0141814,17.0529231 C17.0141814,16.3966154 17.5517257,15.8626154 18.2123894,15.8626154 C18.8735177,15.8626154 19.4110619,16.3966154 19.4110619,17.0529231 C19.4110619,17.7101538 18.8735177,18.2441538 18.2123894,18.2441538 L18.2123894,18.2441538 Z" id="Shape" fill="#FFFFFF"></path>
                </g>
                <g id="Group" transform="translate(31.592920, 3.692308)" fill="#303030" sketch:type="MSShapeGroup">
                    <path d="M5.46696903,12.6623077 L5.46696903,14.2181538 L0.246238938,14.2181538 L0.246238938,12.6623077 L1.59637168,12.2150769 L1.59637168,3.72 L0.246238938,3.18369231 L0.246238938,1.69938462 L4.5670354,1.60984615 L9.42769912,9.87230769 L9.42769912,3.72 L8.11334071,3.18369231 L8.11334071,1.69938462 L13.2444027,1.60984615 L13.2444027,3.18369231 L11.8942699,3.72 L11.8942699,14.2181538 L8.88783186,14.2181538 L4.06294248,6.11630769 L4.06294248,12.2150769 L5.46696903,12.6623077 L5.46696903,12.6623077 Z" id="Shape"></path>
                    <path d="M19.2391593,4.38184615 C20.6910398,4.38184615 21.8107301,4.80230769 22.5968363,5.64230769 C23.3824779,6.48276923 23.7759956,7.67215385 23.7759956,9.21046154 C23.7759956,10.8083077 23.3406637,12.072 22.4704646,13.002 C21.6002655,13.932 20.4331858,14.3967692 18.9687611,14.3967692 C15.9084292,14.3967692 14.378031,12.7573846 14.378031,9.47861538 C14.378031,7.88123077 14.8156858,6.63230769 15.6923894,5.73184615 C16.5686283,4.83184615 17.7510398,4.38184615 19.2391593,4.38184615 L19.2391593,4.38184615 Z M19.1490265,6.43846154 C18.4646681,6.43846154 17.9633628,6.65907692 17.6455752,7.10030769 C17.327323,7.54153846 17.1684292,8.30446154 17.1684292,9.38953846 C17.1684292,10.4150769 17.3184956,11.1632308 17.6186283,11.634 C17.9187611,12.1052308 18.3986947,12.3401538 19.0588938,12.3401538 C19.7186283,12.3401538 20.2050664,12.108 20.5172788,11.6427692 C20.8290265,11.178 20.9851327,10.3970769 20.9851327,9.3 C20.9851327,8.33446154 20.8383186,7.61630769 20.5442257,7.14507692 C20.2501327,6.67384615 19.7850664,6.43846154 19.1490265,6.43846154 L19.1490265,6.43846154 Z" id="Shape"></path>
                    <path d="M35.3338938,14.0926154 L31.5529646,14.2176923 L31.3908186,13.2696923 C30.6349115,14.0206154 29.7284735,14.3963077 28.6724336,14.3963077 C27.4361283,14.3963077 26.5120354,13.9790769 25.9001549,13.1441538 C25.2882743,12.3096923 24.9816372,11.1350769 24.9816372,9.62123077 C24.9816372,7.92830769 25.4104646,6.63138462 26.2690487,5.73138462 C27.1271681,4.83138462 28.3959956,4.38138462 30.0764602,4.38138462 C30.4727655,4.38138462 30.8625664,4.44092308 31.246792,4.56 L31.246792,2.28923077 L29.8065265,1.93153846 L29.8065265,0.500769231 L33.8931637,0.357692308 L33.8931637,12.3046154 L35.3334292,12.6623077 L35.3334292,14.0926154 L35.3338938,14.0926154 Z M31.246792,11.2850769 L31.246792,6.70661538 C30.9466593,6.528 30.4788053,6.43846154 29.8427655,6.43846154 C28.4624336,6.43846154 27.7725,7.452 27.7725,9.47861538 C27.7725,11.3626154 28.3486062,12.3046154 29.5008186,12.3046154 C29.8367257,12.3046154 30.1517257,12.2178462 30.4458186,12.0452308 C30.7399115,11.8726154 30.9466593,11.7027692 31.0669912,11.5356923 L31.246792,11.2850769 L31.246792,11.2850769 Z" id="Shape"></path>
                    <path d="M45.0914602,9.92584615 L39.1143584,9.97938462 C39.1622124,10.7187692 39.3815044,11.2910769 39.7717699,11.6963077 C40.1615708,12.102 40.6628761,12.3046154 41.2747566,12.3046154 C41.7189159,12.3046154 42.1928097,12.2363077 42.6969027,12.0987692 C43.2009956,11.9616923 43.5907965,11.8213846 43.8672345,11.6783077 L44.2993142,11.4636923 L45.0738053,12.8944615 C44.9413938,13.002 44.7555531,13.1390769 44.5158186,13.3061538 C44.2756195,13.4732308 43.7956858,13.6966154 43.0755531,13.9767692 C42.3554204,14.2564615 41.6534071,14.3972308 40.9690487,14.3972308 C39.4446903,14.3972308 38.2836504,13.9767692 37.4854646,13.1363077 C36.6872788,12.2958462 36.2881858,11.1064615 36.2881858,9.56861538 C36.2881858,7.98276923 36.7142257,6.72230769 37.5663053,5.78584615 C38.418385,4.85030769 39.594292,4.38184615 41.0949558,4.38184615 C42.415354,4.38184615 43.429115,4.75707692 44.1376327,5.50846154 C44.8456858,6.25938462 45.1997124,7.28538462 45.1997124,8.58461538 L45.0914602,9.92584615 L45.0914602,9.92584615 Z M40.9146903,6.474 C40.4222124,6.474 40.0235841,6.64107692 39.7174115,6.97476923 C39.4112389,7.30846154 39.2226106,7.75569231 39.1505973,8.316 L42.3911947,8.316 C42.3907301,7.08830769 41.8987168,6.474 40.9146903,6.474 L40.9146903,6.474 Z" id="Shape"></path>
                    <path d="M55.172854,5.45446154 L54.7226549,3.91615385 C54.1586283,3.72553846 53.4803097,3.63 52.6886283,3.63 C50.6838717,3.63 49.6821903,5.09076923 49.6821903,8.01138462 C49.6821903,10.7778462 50.7019912,12.1606154 52.7425221,12.1606154 C53.0184956,12.1606154 53.3214159,12.1338462 53.6517478,12.0803077 C53.9820796,12.0267692 54.2427212,11.976 54.4350664,11.928 L54.7231195,11.8384615 L54.7231195,9.58615385 L53.3729867,9.17492308 L53.3729867,7.70815385 L58.5579425,7.61907692 L58.5579425,9.17492308 L57.3337168,9.58615385 L57.3337168,13.2346154 C57.1896903,13.3301538 56.9885177,13.4436923 56.7306637,13.5743077 C56.4723451,13.7058462 55.9176106,13.8816923 55.065531,14.1018462 C54.2134513,14.3224615 53.3372124,14.4327692 52.4372788,14.4327692 C50.600708,14.4327692 49.1813496,13.8936923 48.1792035,12.8141538 C47.1770575,11.7355385 46.6762168,10.1644615 46.6762168,8.10184615 C46.6762168,6.01569231 47.2221239,4.37630769 48.3144027,3.18369231 C49.4066814,1.99153846 50.8827212,1.39523077 52.7434513,1.39523077 C53.3915708,1.39523077 54.063385,1.464 54.759823,1.60061538 C55.4557965,1.73769231 55.9956637,1.878 56.3798894,2.02107692 L56.9378761,2.23569231 L56.848208,5.45492308 L55.172854,5.45492308 L55.172854,5.45446154 Z" id="Shape"></path>
                    <path d="M59.8179425,4.70353846 L63.9045796,4.56046154 L63.9045796,12.3401538 L65.1645796,12.7873846 L65.1645796,14.2181538 L59.8179425,14.2181538 L59.8179425,12.7873846 L61.258208,12.3401538 L61.258208,6.492 L59.8179425,6.13430769 L59.8179425,4.70353846 L59.8179425,4.70353846 Z M60.9157965,1.60938462 C60.9157965,1.12061538 61.069115,0.730153846 61.374823,0.438 C61.6809956,0.145846154 62.0438496,0 62.4643142,0 C63.4725,0 63.9765929,0.536307692 63.9765929,1.60938462 C63.9765929,2.11015385 63.8237389,2.50661538 63.5175664,2.79876923 C63.2113938,3.09092308 62.8601549,3.23723077 62.4643142,3.23723077 C61.9718363,3.23723077 61.5913274,3.09692308 61.3213938,2.81676923 C61.0514602,2.53661538 60.9157965,2.13461538 60.9157965,1.60938462 L60.9157965,1.60938462 Z" id="Shape"></path>
                    <path d="M70.2231637,14.3967692 C69.2265929,14.3967692 68.5426991,14.0778462 68.1710177,13.44 C67.7988717,12.8021538 67.6125664,11.6903077 67.6125664,10.1044615 L67.6125664,6.76015385 L65.9381416,6.76015385 L65.9381416,5.06123077 L67.6125664,4.82907692 L67.6125664,2.36076923 L70.2589381,1.878 L70.2589381,4.82907692 L72.7794027,4.82907692 L72.7794027,6.76061538 L70.2589381,6.76061538 L70.2589381,10.8023077 C70.2589381,11.3986154 70.3249115,11.8158462 70.4568584,12.0544615 C70.5888053,12.2930769 70.8410841,12.4121538 71.2127655,12.4121538 C71.6448451,12.4121538 72.1187389,12.2750769 72.6353761,12.0004615 L73.2834956,13.2881538 C72.2274558,14.0275385 71.2071903,14.3967692 70.2231637,14.3967692 L70.2231637,14.3967692 Z" id="Shape"></path>
                </g>
            </g>
        </g>
    </g>
</svg>