<?xml version="1.0" encoding="UTF-8" standalone="no"?>
<svg width="347px" height="299px" viewBox="0 0 347 299" version="1.1" xmlns="http://www.w3.org/2000/svg" xmlns:xlink="http://www.w3.org/1999/xlink" xmlns:sketch="http://www.bohemiancoding.com/sketch/ns">
    <!-- Generator: Sketch 3.2.2 (9983) - http://www.bohemiancoding.com/sketch -->
    <title>nodegit</title>
    <desc>Created with Sketch.</desc>
    <defs></defs>
    <g id="Page-1" stroke="none" stroke-width="1" fill="none" fill-rule="evenodd" sketch:type="MSPage">
        <g id="nodegit" sketch:type="MSLayerGroup">
            <g id="Group" sketch:type="MSShapeGroup">
                <path d="M259.976847,297.949481 L86.8899723,298.1405 L0.186371681,149.261269 L86.5521737,0.191019231 L259.633225,0 L346.336825,148.879231 L259.976847,297.949481 Z" id="Shape" fill="#F1595F"></path>
                <path d="M218.538269,191.783308 C213.03448,191.783308 207.845194,193.079923 203.203374,195.320058 L134.45552,126.998846 C135.492212,125.187058 136.307588,123.242135 137.012306,121.250904 L185.276748,121.250904 C190.075819,134.934827 203.150957,144.792577 218.532445,144.792577 C237.961692,144.792577 253.779989,129.082692 253.779989,109.766596 C253.779989,90.4505 237.961692,74.7348269 218.532445,74.7348269 C203.150957,74.7348269 190.069994,84.5983654 185.276748,98.2822885 L137.064723,98.2822885 C132.265653,84.5983654 119.190514,74.7348269 103.809027,74.7348269 C84.3739546,74.7348269 68.5614823,90.4505 68.5614823,109.766596 C68.5614823,129.076904 84.3739546,144.792577 103.809027,144.792577 C108.503263,144.792577 112.97036,143.860635 117.070537,142.199346 L186.860907,211.556692 C184.60115,216.170096 183.296549,221.333404 183.296549,226.8035 C183.296549,246.119596 199.109021,261.835269 218.538269,261.835269 C237.967517,261.835269 253.785813,246.119596 253.785813,226.8035 C253.785813,207.498981 237.967517,191.783308 218.538269,191.783308 L218.538269,191.783308 Z M218.538269,94.8381538 C226.825985,94.8381538 233.564486,101.535404 233.564486,109.772385 C233.564486,117.997788 226.825985,124.700827 218.538269,124.700827 C210.256377,124.700827 203.517876,118.003577 203.517876,109.772385 C203.517876,101.535404 210.256377,94.8381538 218.538269,94.8381538 L218.538269,94.8381538 Z M103.809027,124.695038 C95.527135,124.695038 88.7886338,117.997788 88.7886338,109.766596 C88.7886338,101.529615 95.527135,94.8323654 103.809027,94.8323654 C112.090918,94.8323654 118.829419,101.529615 118.829419,109.766596 C118.829419,117.997788 112.096742,124.695038 103.809027,124.695038 L103.809027,124.695038 Z M218.538269,241.743519 C210.256377,241.743519 203.517876,235.046269 203.517876,226.809288 C203.517876,218.583885 210.250553,211.886635 218.538269,211.886635 C226.825985,211.886635 233.564486,218.583885 233.564486,226.809288 C233.564486,235.046269 226.825985,241.743519 218.538269,241.743519 L218.538269,241.743519 Z" id="Shape" fill="#BC4E52"></path>
                <path d="M228.30531,178.851885 C222.807345,178.851885 217.618059,180.1485 212.970415,182.388635 L144.228385,114.067423 C145.270902,112.249846 146.138695,110.328077 146.837588,108.325269 L195.049613,108.325269 C199.848684,122.003404 212.923822,131.861154 228.30531,131.861154 C247.740382,131.861154 263.552854,116.151269 263.552854,96.8351731 C263.552854,77.5190769 247.740382,61.8091923 228.30531,61.8091923 C212.923822,61.8091923 199.848684,71.6727308 195.049613,85.3508654 L146.843413,85.3508654 C142.044342,71.6669423 128.963379,61.8091923 113.581892,61.8091923 C94.1526438,61.8091923 78.3401715,77.5248654 78.3401715,96.8351731 C78.3401715,116.145481 94.1468197,131.861154 113.581892,131.861154 C118.276128,131.861154 122.743225,130.929212 126.843402,129.267923 L196.633772,198.625269 C194.374015,203.238673 193.069414,208.401981 193.069414,213.872077 C193.069414,233.188173 208.881886,248.903846 228.311134,248.903846 C247.746206,248.903846 263.558678,233.188173 263.558678,213.872077 C263.552854,194.561769 247.746206,178.851885 228.30531,178.851885 L228.30531,178.851885 Z M228.30531,81.9067308 C236.593025,81.9067308 243.331527,88.6039808 243.331527,96.8409615 C243.331527,105.072154 236.593025,111.769404 228.30531,111.769404 C220.023418,111.769404 213.284917,105.072154 213.284917,96.8409615 C213.284917,88.6039808 220.023418,81.9067308 228.30531,81.9067308 L228.30531,81.9067308 Z M98.5556748,96.8351731 C98.5556748,88.6039808 105.294176,81.9009423 113.576067,81.9009423 C121.863783,81.9009423 128.602284,88.5981923 128.602284,96.8351731 C128.602284,105.066365 121.863783,111.763615 113.576067,111.763615 C105.3,111.769404 98.5556748,105.066365 98.5556748,96.8351731 L98.5556748,96.8351731 Z M228.30531,228.812096 C220.023418,228.812096 213.284917,222.109058 213.284917,213.872077 C213.284917,205.640885 220.023418,198.943635 228.30531,198.943635 C236.593025,198.943635 243.331527,205.640885 243.331527,213.872077 C243.331527,222.114846 236.593025,228.812096 228.30531,228.812096 L228.30531,228.812096 Z" id="Shape" fill="#FFFFFF"></path>
            </g>
        </g>
    </g>
</svg>