<?xml version="1.0" encoding="utf-8"?>
<!-- Generator: Adobe Illustrator 16.0.4, SVG Export Plug-In . SVG Version: 6.00 Build 0)  -->
<!DOCTYPE svg PUBLIC "-//W3C//DTD SVG 1.1//EN" "http://www.w3.org/Graphics/SVG/1.1/DTD/svg11.dtd">
<svg version="1.1" id="Layer_1" xmlns="http://www.w3.org/2000/svg" xmlns:xlink="http://www.w3.org/1999/xlink" x="0px" y="0px"
	 width="226.735px" height="51.506px" viewBox="0 0 226.735 51.506" enable-background="new 0 0 226.735 51.506"
	 xml:space="preserve">
<g>
	<g>
		<polygon fill="#F1595F" points="45.638,51.473 15.919,51.506 1.032,25.786 15.861,0.033 45.579,0 60.466,25.72 		"/>
	</g>
	<path fill="#8E8E8E" d="M22.779,22.333"/>
	<path fill="#BC4E52" d="M38.523,33.132c-0.945,0-1.836,0.224-2.633,0.611L24.086,21.94c0.178-0.313,0.318-0.649,0.439-0.993h8.287
		c0.824,2.364,3.069,4.067,5.71,4.067c3.336,0,6.052-2.714,6.052-6.051c0-3.337-2.716-6.052-6.052-6.052
		c-2.641,0-4.887,1.704-5.71,4.068h-8.278c-0.824-2.364-3.069-4.068-5.71-4.068c-3.337,0-6.052,2.715-6.052,6.052
		c0,3.336,2.715,6.051,6.052,6.051c0.806,0,1.573-0.161,2.277-0.448l11.983,11.982c-0.388,0.797-0.612,1.689-0.612,2.634
		c0,3.337,2.715,6.052,6.051,6.052s6.052-2.715,6.052-6.052C44.575,35.847,41.859,33.132,38.523,33.132z M38.523,16.384
		c1.423,0,2.58,1.157,2.58,2.58c0,1.421-1.157,2.579-2.58,2.579c-1.422,0-2.579-1.157-2.579-2.579
		C35.944,17.541,37.101,16.384,38.523,16.384z M18.824,21.542c-1.422,0-2.579-1.157-2.579-2.579c0-1.423,1.157-2.58,2.579-2.58
		s2.579,1.157,2.579,2.58C21.403,20.385,20.247,21.542,18.824,21.542z M38.523,41.763c-1.422,0-2.579-1.157-2.579-2.58
		c0-1.421,1.156-2.578,2.579-2.578c1.423,0,2.58,1.157,2.58,2.578C41.103,40.606,39.946,41.763,38.523,41.763z"/>
	<path fill="#FFFFFF" d="M40.2,30.898c-0.944,0-1.835,0.224-2.633,0.611L25.764,19.706c0.179-0.314,0.328-0.646,0.448-0.992h8.278
		c0.824,2.363,3.069,4.066,5.71,4.066c3.337,0,6.052-2.714,6.052-6.051s-2.715-6.051-6.052-6.051c-2.641,0-4.886,1.704-5.71,4.067
		h-8.277c-0.824-2.364-3.07-4.067-5.711-4.067c-3.336,0-6.051,2.715-6.051,6.051s2.714,6.051,6.051,6.051
		c0.806,0,1.573-0.161,2.277-0.448l11.983,11.982c-0.388,0.797-0.612,1.689-0.612,2.634c0,3.337,2.715,6.052,6.051,6.052
		c3.337,0,6.052-2.715,6.052-6.052C46.252,33.612,43.538,30.898,40.2,30.898z M40.2,14.15c1.423,0,2.58,1.157,2.58,2.58
		c0,1.422-1.157,2.579-2.58,2.579c-1.422,0-2.579-1.157-2.579-2.579C37.621,15.307,38.778,14.15,40.2,14.15z M17.922,16.729
		c0-1.422,1.157-2.58,2.579-2.58c1.423,0,2.58,1.157,2.58,2.58c0,1.422-1.157,2.579-2.58,2.579
		C19.08,19.309,17.922,18.151,17.922,16.729z M40.2,39.529c-1.422,0-2.579-1.158-2.579-2.581c0-1.422,1.157-2.579,2.579-2.579
		c1.423,0,2.58,1.157,2.58,2.579C42.78,38.372,41.623,39.529,40.2,39.529z"/>
</g>
<g>
	<path fill="#FFFFFF" d="M80.767,35.435v3.371H69.53v-3.371l2.906-0.969V16.06l-2.906-1.162v-3.216l9.3-0.194L89.292,29.39V16.06
		l-2.829-1.162v-3.216l11.044-0.194v3.41l-2.906,1.162v22.746h-6.471L77.745,21.252v13.214L80.767,35.435z"/>
	<path fill="#FFFFFF" d="M110.41,17.494c3.125,0,5.535,0.911,7.227,2.731c1.691,1.821,2.538,4.398,2.538,7.731
		c0,3.462-0.937,6.2-2.81,8.215c-1.873,2.015-4.385,3.022-7.537,3.022c-6.587,0-9.881-3.552-9.881-10.656
		c0-3.461,0.942-6.167,2.829-8.118C104.662,18.469,107.207,17.494,110.41,17.494z M110.216,21.95c-1.473,0-2.552,0.478-3.236,1.434
		c-0.685,0.956-1.027,2.609-1.027,4.96c0,2.222,0.323,3.843,0.969,4.863c0.646,1.021,1.679,1.53,3.1,1.53
		c1.42,0,2.467-0.503,3.139-1.511c0.671-1.007,1.007-2.699,1.007-5.076c0-2.092-0.316-3.648-0.949-4.669
		C112.586,22.46,111.585,21.95,110.216,21.95z"/>
	<path fill="#FFFFFF" d="M145.052,38.534l-8.138,0.271l-0.349-2.054c-1.627,1.627-3.578,2.441-5.851,2.441
		c-2.661,0-4.65-0.904-5.967-2.713c-1.317-1.808-1.977-4.353-1.977-7.633c0-3.668,0.923-6.478,2.771-8.428
		c1.847-1.95,4.578-2.925,8.195-2.925c0.853,0,1.692,0.129,2.519,0.387V12.96l-3.1-0.775v-3.1l8.796-0.31V34.66l3.1,0.775V38.534z
		 M136.255,32.451v-9.92c-0.646-0.387-1.653-0.581-3.022-0.581c-2.971,0-4.456,2.196-4.456,6.587c0,4.082,1.24,6.123,3.72,6.123
		c0.723,0,1.401-0.188,2.034-0.562c0.633-0.374,1.078-0.742,1.337-1.104L136.255,32.451z"/>
	<path fill="#FFFFFF" d="M166.054,29.506l-12.865,0.116c0.103,1.602,0.575,2.842,1.415,3.72c0.839,0.879,1.918,1.318,3.235,1.318
		c0.956,0,1.976-0.148,3.061-0.446c1.085-0.297,1.924-0.601,2.519-0.911l0.93-0.465l1.667,3.1c-0.285,0.233-0.685,0.53-1.201,0.892
		c-0.517,0.362-1.55,0.846-3.1,1.453c-1.55,0.606-3.061,0.911-4.534,0.911c-3.281,0-5.78-0.911-7.498-2.732
		c-1.718-1.821-2.577-4.398-2.577-7.73c0-3.436,0.917-6.167,2.751-8.196c1.834-2.027,4.365-3.042,7.595-3.042
		c2.842,0,5.024,0.813,6.549,2.441c1.524,1.627,2.286,3.85,2.286,6.665L166.054,29.506z M157.064,22.027
		c-1.06,0-1.918,0.362-2.577,1.085c-0.659,0.723-1.065,1.692-1.22,2.906h6.975C160.241,23.358,159.182,22.027,157.064,22.027z"/>
	<path fill="#FFFFFF" d="M187.753,19.818l-0.969-3.333c-1.214-0.413-2.674-0.62-4.378-0.62c-4.315,0-6.471,3.165-6.471,9.493
		c0,5.994,2.195,8.99,6.587,8.99c0.594,0,1.246-0.058,1.957-0.174s1.272-0.226,1.686-0.33l0.62-0.194V28.77l-2.906-0.891v-3.178
		l11.16-0.193v3.371l-2.635,0.891v7.905c-0.31,0.207-0.743,0.453-1.298,0.736c-0.556,0.285-1.75,0.666-3.584,1.143
		c-1.834,0.478-3.72,0.717-5.657,0.717c-3.953,0-7.008-1.168-9.165-3.507c-2.157-2.337-3.235-5.741-3.235-10.21
		c0-4.52,1.175-8.072,3.526-10.656c2.351-2.583,5.528-3.875,9.533-3.875c1.395,0,2.841,0.149,4.34,0.445
		c1.498,0.297,2.66,0.601,3.487,0.911l1.201,0.465l-0.193,6.975H187.753z"/>
	<path fill="#FFFFFF" d="M197.751,18.191l8.796-0.31v16.856l2.712,0.969v3.1h-11.508v-3.1l3.1-0.969V22.066l-3.1-0.775V18.191z
		 M200.114,11.487c0-1.059,0.33-1.905,0.988-2.538C201.761,8.316,202.542,8,203.447,8c2.17,0,3.255,1.162,3.255,3.487
		c0,1.085-0.329,1.944-0.988,2.577c-0.659,0.633-1.415,0.95-2.267,0.95c-1.06,0-1.879-0.304-2.46-0.911
		S200.114,12.625,200.114,11.487z"/>
	<path fill="#FFFFFF" d="M220.147,39.193c-2.145,0-3.617-0.691-4.417-2.073c-0.801-1.382-1.202-3.791-1.202-7.227v-7.246h-3.604
		v-3.681l3.604-0.503v-5.348l5.696-1.046v6.394h5.425v4.185h-5.425v8.757c0,1.292,0.142,2.196,0.426,2.713
		c0.284,0.517,0.827,0.775,1.627,0.775c0.93,0,1.95-0.297,3.062-0.892l1.395,2.79C224.461,38.393,222.265,39.193,220.147,39.193z"/>
</g>
</svg>
